<mxfile host="app.diagrams.net" agent="Mozilla/5.0 (Macintosh; Intel Mac OS X 10.15; rv:137.0) Gecko/20100101 Firefox/137.0" version="26.2.14">
  <diagram name="Page-1" id="eNPtsUAIUc8ON8tqVejX">
    <mxGraphModel dx="1002" dy="761" grid="1" gridSize="10" guides="1" tooltips="1" connect="1" arrows="1" fold="1" page="1" pageScale="1" pageWidth="850" pageHeight="1100" math="0" shadow="0">
      <root>
        <mxCell id="0" />
        <mxCell id="1" parent="0" />
        <mxCell id="2" value="Course" style="whiteSpace=wrap;strokeWidth=2;" parent="1" vertex="1">
          <mxGeometry x="288" y="8" width="108" height="54" as="geometry" />
        </mxCell>
        <mxCell id="3" value="Container: Course Instances" style="whiteSpace=wrap;strokeWidth=2;" parent="1" vertex="1">
          <mxGeometry x="84" y="136" width="260" height="78" as="geometry" />
        </mxCell>
        <mxCell id="4" value="Course Instance" style="whiteSpace=wrap;strokeWidth=2;" parent="1" vertex="1">
          <mxGeometry x="127" y="287" width="173" height="54" as="geometry" />
        </mxCell>
        <mxCell id="5" value="Container: Modules" style="whiteSpace=wrap;strokeWidth=2;" parent="1" vertex="1">
          <mxGeometry x="115" y="415" width="198" height="54" as="geometry" />
        </mxCell>
        <mxCell id="6" value="Module" style="whiteSpace=wrap;strokeWidth=2;" parent="1" vertex="1">
          <mxGeometry x="158" y="542" width="111" height="54" as="geometry" />
        </mxCell>
        <mxCell id="7" value="Container: Pages" style="whiteSpace=wrap;strokeWidth=2;" parent="1" vertex="1">
          <mxGeometry x="8" y="670" width="180" height="54" as="geometry" />
        </mxCell>
        <mxCell id="8" value="Page" style="whiteSpace=wrap;strokeWidth=2;" parent="1" vertex="1">
          <mxGeometry x="167" y="797" width="93" height="54" as="geometry" />
        </mxCell>
        <mxCell id="9" value="Content Pool" style="whiteSpace=wrap;strokeWidth=2;" parent="1" vertex="1">
          <mxGeometry x="394" y="148" width="152" height="54" as="geometry" />
        </mxCell>
        <mxCell id="10" value="Content Nodes" style="whiteSpace=wrap;strokeWidth=2;" parent="1" vertex="1">
          <mxGeometry x="388" y="287" width="165" height="54" as="geometry" />
        </mxCell>
        <mxCell id="11" value="Block Generators" style="whiteSpace=wrap;strokeWidth=2;" parent="1" vertex="1">
          <mxGeometry x="238" y="670" width="182" height="54" as="geometry" />
        </mxCell>
        <mxCell id="12" value="contains" style="curved=1;startArrow=none;endArrow=block;exitX=0;exitY=1;entryX=0.5;entryY=-0.01;" parent="1" source="2" target="3" edge="1">
          <mxGeometry relative="1" as="geometry">
            <Array as="points">
              <mxPoint x="214" y="99" />
            </Array>
          </mxGeometry>
        </mxCell>
        <mxCell id="13" value="has" style="curved=1;startArrow=none;endArrow=block;exitX=0.5;exitY=0.99;entryX=0.5;entryY=0;" parent="1" source="3" target="4" edge="1">
          <mxGeometry relative="1" as="geometry">
            <Array as="points" />
          </mxGeometry>
        </mxCell>
        <mxCell id="14" value="has" style="curved=1;startArrow=none;endArrow=block;exitX=0.5;exitY=1;entryX=0.5;entryY=-0.01;" parent="1" source="4" target="5" edge="1">
          <mxGeometry relative="1" as="geometry">
            <Array as="points" />
          </mxGeometry>
        </mxCell>
        <mxCell id="15" value="contains" style="curved=1;startArrow=none;endArrow=block;exitX=0.5;exitY=0.99;entryX=0.5;entryY=0;" parent="1" source="5" target="6" edge="1">
          <mxGeometry relative="1" as="geometry">
            <Array as="points" />
          </mxGeometry>
        </mxCell>
        <mxCell id="16" value="has" style="curved=1;startArrow=none;endArrow=block;exitX=0.06;exitY=1;entryX=0.5;entryY=-0.01;" parent="1" source="6" target="7" edge="1">
          <mxGeometry relative="1" as="geometry">
            <Array as="points">
              <mxPoint x="98" y="633" />
            </Array>
          </mxGeometry>
        </mxCell>
        <mxCell id="17" value="contains" style="curved=1;startArrow=none;endArrow=block;exitX=0.5;exitY=0.99;entryX=0;entryY=0.02;" parent="1" source="7" target="8" edge="1">
          <mxGeometry relative="1" as="geometry">
            <Array as="points">
              <mxPoint x="98" y="760" />
            </Array>
          </mxGeometry>
        </mxCell>
        <mxCell id="18" value="points to" style="curved=1;startArrow=none;endArrow=block;exitX=1;exitY=1;entryX=0.5;entryY=-0.01;" parent="1" source="2" target="9" edge="1">
          <mxGeometry relative="1" as="geometry">
            <Array as="points">
              <mxPoint x="470" y="99" />
            </Array>
          </mxGeometry>
        </mxCell>
        <mxCell id="19" value="contains" style="curved=1;startArrow=none;endArrow=block;exitX=0.5;exitY=0.99;entryX=0.5;entryY=0;" parent="1" source="9" target="10" edge="1">
          <mxGeometry relative="1" as="geometry">
            <Array as="points" />
          </mxGeometry>
        </mxCell>
        <mxCell id="20" value="uses" style="curved=1;startArrow=none;endArrow=block;exitX=0.95;exitY=1;entryX=0.5;entryY=-0.01;" parent="1" source="6" target="11" edge="1">
          <mxGeometry relative="1" as="geometry">
            <Array as="points">
              <mxPoint x="330" y="633" />
            </Array>
          </mxGeometry>
        </mxCell>
        <mxCell id="21" value="accesses" style="curved=1;startArrow=none;endArrow=block;exitX=0.5;exitY=0.99;entryX=1.01;entryY=0.02;" parent="1" source="11" target="8" edge="1">
          <mxGeometry relative="1" as="geometry">
            <Array as="points">
              <mxPoint x="330" y="760" />
            </Array>
          </mxGeometry>
        </mxCell>
        <mxCell id="IlpyLP8oz_AvC5KWS2CE-33" value="" style="group;verticalAlign=top;" vertex="1" connectable="0" parent="1">
          <mxGeometry x="830" y="200" width="585" height="470" as="geometry" />
        </mxCell>
        <mxCell id="IlpyLP8oz_AvC5KWS2CE-25" style="edgeStyle=orthogonalEdgeStyle;rounded=0;orthogonalLoop=1;jettySize=auto;html=1;entryX=0.5;entryY=0;entryDx=0;entryDy=0;movable=1;resizable=1;rotatable=1;deletable=1;editable=1;locked=0;connectable=1;" edge="1" parent="IlpyLP8oz_AvC5KWS2CE-33" source="IlpyLP8oz_AvC5KWS2CE-21" target="IlpyLP8oz_AvC5KWS2CE-24">
          <mxGeometry relative="1" as="geometry" />
        </mxCell>
        <mxCell id="IlpyLP8oz_AvC5KWS2CE-21" value="Course 0" style="rounded=0;whiteSpace=wrap;html=1;verticalAlign=top;movable=1;resizable=1;rotatable=1;deletable=1;editable=1;locked=0;connectable=1;" vertex="1" parent="IlpyLP8oz_AvC5KWS2CE-33">
          <mxGeometry x="48.75" width="479.3749999999999" height="362.29166666666663" as="geometry" />
        </mxCell>
        <mxCell id="IlpyLP8oz_AvC5KWS2CE-24" value="Course 1" style="rounded=0;whiteSpace=wrap;html=1;verticalAlign=top;movable=1;resizable=1;rotatable=1;deletable=1;editable=1;locked=0;connectable=1;" vertex="1" parent="IlpyLP8oz_AvC5KWS2CE-33">
          <mxGeometry x="48.74767857142854" y="411.24625" width="218.95714285714283" height="50.00000000000001" as="geometry" />
        </mxCell>
        <mxCell id="IlpyLP8oz_AvC5KWS2CE-36" value="Course 2" style="rounded=0;whiteSpace=wrap;html=1;verticalAlign=top;movable=1;resizable=1;rotatable=1;deletable=1;editable=1;locked=0;connectable=1;" vertex="1" parent="IlpyLP8oz_AvC5KWS2CE-33">
          <mxGeometry x="308.7476785714284" y="411.24625" width="218.95714285714283" height="50.00000000000001" as="geometry" />
        </mxCell>
        <mxCell id="IlpyLP8oz_AvC5KWS2CE-37" value="" style="endArrow=none;dashed=1;html=1;dashPattern=1 3;strokeWidth=2;rounded=0;exitX=0.5;exitY=0;exitDx=0;exitDy=0;edgeStyle=orthogonalEdgeStyle;endFill=1;startFill=1;startArrow=classicThin;entryX=0.5;entryY=1;entryDx=0;entryDy=0;" edge="1" parent="IlpyLP8oz_AvC5KWS2CE-33" source="IlpyLP8oz_AvC5KWS2CE-36" target="IlpyLP8oz_AvC5KWS2CE-21">
          <mxGeometry width="50" height="50" relative="1" as="geometry">
            <mxPoint x="199.06249999999997" y="323.12500000000006" as="sourcePoint" />
            <mxPoint x="296.56249999999994" y="372.0833333333333" as="targetPoint" />
          </mxGeometry>
        </mxCell>
        <mxCell id="IlpyLP8oz_AvC5KWS2CE-45" value="" style="group;" vertex="1" connectable="0" parent="IlpyLP8oz_AvC5KWS2CE-33">
          <mxGeometry x="296.56" y="40" width="220.63" height="312.71" as="geometry" />
        </mxCell>
        <mxCell id="IlpyLP8oz_AvC5KWS2CE-29" value="Instance 1" style="rounded=0;whiteSpace=wrap;html=1;verticalAlign=top;movable=1;resizable=1;rotatable=1;deletable=1;editable=1;locked=0;connectable=1;" vertex="1" parent="IlpyLP8oz_AvC5KWS2CE-45">
          <mxGeometry width="220.62999999999994" height="312.71" as="geometry" />
        </mxCell>
        <mxCell id="IlpyLP8oz_AvC5KWS2CE-41" style="edgeStyle=orthogonalEdgeStyle;rounded=0;orthogonalLoop=1;jettySize=auto;html=1;entryX=0;entryY=0.5;entryDx=0;entryDy=0;" edge="1" parent="IlpyLP8oz_AvC5KWS2CE-45" source="IlpyLP8oz_AvC5KWS2CE-30" target="IlpyLP8oz_AvC5KWS2CE-40">
          <mxGeometry relative="1" as="geometry">
            <Array as="points">
              <mxPoint x="60" y="156" />
              <mxPoint x="78" y="156" />
            </Array>
          </mxGeometry>
        </mxCell>
        <mxCell id="IlpyLP8oz_AvC5KWS2CE-30" value="Module 1" style="rounded=0;whiteSpace=wrap;html=1;verticalAlign=top;movable=1;resizable=1;rotatable=1;deletable=1;editable=1;locked=0;connectable=1;" vertex="1" parent="IlpyLP8oz_AvC5KWS2CE-45">
          <mxGeometry x="22.56350850703393" y="46.99572918701009" width="74.2393868306695" height="65.50013314298128" as="geometry" />
        </mxCell>
        <mxCell id="IlpyLP8oz_AvC5KWS2CE-42" style="edgeStyle=orthogonalEdgeStyle;rounded=0;orthogonalLoop=1;jettySize=auto;html=1;entryX=1;entryY=0.5;entryDx=0;entryDy=0;" edge="1" parent="IlpyLP8oz_AvC5KWS2CE-45" source="IlpyLP8oz_AvC5KWS2CE-31" target="IlpyLP8oz_AvC5KWS2CE-40">
          <mxGeometry relative="1" as="geometry">
            <Array as="points">
              <mxPoint x="159" y="156" />
              <mxPoint x="143" y="156" />
            </Array>
          </mxGeometry>
        </mxCell>
        <mxCell id="IlpyLP8oz_AvC5KWS2CE-31" value="Module 2" style="rounded=0;whiteSpace=wrap;html=1;verticalAlign=top;movable=1;resizable=1;rotatable=1;deletable=1;editable=1;locked=0;connectable=1;strokeColor=default;align=center;fontFamily=Helvetica;fontSize=12;fontColor=default;fillColor=default;" vertex="1" parent="IlpyLP8oz_AvC5KWS2CE-45">
          <mxGeometry x="121.17830964130515" y="46.99572918701009" width="75.6125351697724" height="65.50013314298128" as="geometry" />
        </mxCell>
        <mxCell id="IlpyLP8oz_AvC5KWS2CE-40" value="&amp;gt; 50%" style="rhombus;whiteSpace=wrap;html=1;" vertex="1" parent="IlpyLP8oz_AvC5KWS2CE-45">
          <mxGeometry x="77.81444759519785" y="117.53642046307675" width="65.00110480960448" height="77.64128984202848" as="geometry" />
        </mxCell>
        <mxCell id="IlpyLP8oz_AvC5KWS2CE-43" value="Module 3" style="rounded=0;whiteSpace=wrap;html=1;verticalAlign=top;" vertex="1" parent="IlpyLP8oz_AvC5KWS2CE-45">
          <mxGeometry x="50.595234956175865" y="225.36354892771794" width="119.43953008764825" height="67.93612861177493" as="geometry" />
        </mxCell>
        <mxCell id="IlpyLP8oz_AvC5KWS2CE-44" style="edgeStyle=orthogonalEdgeStyle;rounded=0;orthogonalLoop=1;jettySize=auto;html=1;" edge="1" parent="IlpyLP8oz_AvC5KWS2CE-45" source="IlpyLP8oz_AvC5KWS2CE-40" target="IlpyLP8oz_AvC5KWS2CE-43">
          <mxGeometry relative="1" as="geometry" />
        </mxCell>
        <mxCell id="IlpyLP8oz_AvC5KWS2CE-46" value="" style="group" vertex="1" connectable="0" parent="IlpyLP8oz_AvC5KWS2CE-33">
          <mxGeometry x="60.9375" y="37.208333333333336" width="220.62625" height="315.4972916666666" as="geometry" />
        </mxCell>
        <mxCell id="IlpyLP8oz_AvC5KWS2CE-22" value="Instance 0" style="rounded=0;whiteSpace=wrap;html=1;verticalAlign=top;movable=1;resizable=1;rotatable=1;deletable=1;editable=1;locked=0;connectable=1;" vertex="1" parent="IlpyLP8oz_AvC5KWS2CE-46">
          <mxGeometry width="220.62625" height="315.4972916666666" as="geometry" />
        </mxCell>
        <mxCell id="IlpyLP8oz_AvC5KWS2CE-32" style="edgeStyle=orthogonalEdgeStyle;rounded=0;orthogonalLoop=1;jettySize=auto;html=1;entryX=0.5;entryY=0;entryDx=0;entryDy=0;movable=1;resizable=1;rotatable=1;deletable=1;editable=1;locked=0;connectable=1;" edge="1" parent="IlpyLP8oz_AvC5KWS2CE-46" source="IlpyLP8oz_AvC5KWS2CE-27" target="IlpyLP8oz_AvC5KWS2CE-28">
          <mxGeometry relative="1" as="geometry" />
        </mxCell>
        <mxCell id="IlpyLP8oz_AvC5KWS2CE-27" value="Module 1" style="rounded=0;whiteSpace=wrap;html=1;verticalAlign=top;movable=1;resizable=1;rotatable=1;deletable=1;editable=1;locked=0;connectable=1;" vertex="1" parent="IlpyLP8oz_AvC5KWS2CE-46">
          <mxGeometry x="20.059464285714277" y="33.99729166666667" width="175.5" height="68.99999999999999" as="geometry" />
        </mxCell>
        <mxCell id="IlpyLP8oz_AvC5KWS2CE-28" value="Module 2" style="rounded=0;whiteSpace=wrap;html=1;verticalAlign=top;movable=1;resizable=1;rotatable=1;deletable=1;editable=1;locked=0;connectable=1;" vertex="1" parent="IlpyLP8oz_AvC5KWS2CE-46">
          <mxGeometry x="20.060625" y="152.99479166666666" width="175.50000000000006" height="142.91916666666668" as="geometry" />
        </mxCell>
        <mxCell id="IlpyLP8oz_AvC5KWS2CE-35" value="&lt;h1 style=&quot;margin-top: 0px;&quot;&gt;Example 1:&amp;nbsp; Learning managment system (LMS) &lt;br&gt;&lt;/h1&gt;&lt;p&gt;This sketch shows how the flow can be used to create a course. You are able to create dependencies between courses with arrows, &lt;br&gt;&lt;/p&gt;" style="text;html=1;whiteSpace=wrap;overflow=hidden;rounded=0;" vertex="1" parent="1">
          <mxGeometry x="895" y="100" width="710" height="100" as="geometry" />
        </mxCell>
        <mxCell id="IlpyLP8oz_AvC5KWS2CE-38" value="Optional dependency" style="endArrow=none;dashed=1;html=1;dashPattern=1 3;strokeWidth=2;rounded=0;exitX=0.5;exitY=0;exitDx=0;exitDy=0;edgeStyle=orthogonalEdgeStyle;endFill=1;startFill=1;startArrow=classicThin;" edge="1" parent="1">
          <mxGeometry x="1" y="70" width="50" height="50" relative="1" as="geometry">
            <mxPoint x="1180" y="40" as="sourcePoint" />
            <mxPoint x="1100" y="40" as="targetPoint" />
            <mxPoint x="-70" y="-70" as="offset" />
          </mxGeometry>
        </mxCell>
        <mxCell id="IlpyLP8oz_AvC5KWS2CE-39" value="Required dependency" style="edgeStyle=orthogonalEdgeStyle;rounded=0;orthogonalLoop=1;jettySize=auto;html=1;movable=1;resizable=1;rotatable=1;deletable=1;editable=1;locked=0;connectable=1;" edge="1" parent="1">
          <mxGeometry x="-1" y="-80" relative="1" as="geometry">
            <mxPoint x="1110" y="70" as="sourcePoint" />
            <mxPoint x="1180" y="70" as="targetPoint" />
            <Array as="points">
              <mxPoint x="1150" y="70" />
              <mxPoint x="1150" y="70" />
            </Array>
            <mxPoint x="-80" y="-80" as="offset" />
          </mxGeometry>
        </mxCell>
        <mxCell id="IlpyLP8oz_AvC5KWS2CE-59" style="edgeStyle=orthogonalEdgeStyle;rounded=0;orthogonalLoop=1;jettySize=auto;html=1;entryX=1;entryY=0.5;entryDx=0;entryDy=0;fontSize=18;strokeWidth=3;" edge="1" parent="1" source="IlpyLP8oz_AvC5KWS2CE-49" target="IlpyLP8oz_AvC5KWS2CE-43">
          <mxGeometry relative="1" as="geometry">
            <Array as="points">
              <mxPoint x="1400" y="382" />
              <mxPoint x="1400" y="499" />
            </Array>
          </mxGeometry>
        </mxCell>
        <mxCell id="IlpyLP8oz_AvC5KWS2CE-49" value="Course 0 Contents" style="rounded=0;whiteSpace=wrap;html=1;verticalAlign=top;shadow=1;fillColor=light-dark(#BAC8D3,#FFFFFF);strokeColor=#23445d;fontColor=light-dark(#000000,#000000);" vertex="1" parent="1">
          <mxGeometry x="1440" y="202" width="150" height="360" as="geometry" />
        </mxCell>
        <mxCell id="IlpyLP8oz_AvC5KWS2CE-51" style="edgeStyle=orthogonalEdgeStyle;rounded=0;orthogonalLoop=1;jettySize=auto;html=1;entryX=0.5;entryY=0;entryDx=0;entryDy=0;fillColor=#60a917;strokeColor=#2D7600;" edge="1" parent="1" source="IlpyLP8oz_AvC5KWS2CE-50" target="IlpyLP8oz_AvC5KWS2CE-31">
          <mxGeometry relative="1" as="geometry" />
        </mxCell>
        <mxCell id="IlpyLP8oz_AvC5KWS2CE-50" value="Content 1" style="rounded=1;whiteSpace=wrap;html=1;glass=0;fillColor=#60a917;fontColor=#ffffff;strokeColor=#2D7600;" vertex="1" parent="1">
          <mxGeometry x="1455" y="237" width="120" height="60" as="geometry" />
        </mxCell>
        <mxCell id="IlpyLP8oz_AvC5KWS2CE-53" value="Page" style="rounded=0;whiteSpace=wrap;html=1;" vertex="1" parent="1">
          <mxGeometry x="1240" y="40" width="117" height="40" as="geometry" />
        </mxCell>
        <mxCell id="IlpyLP8oz_AvC5KWS2CE-56" style="edgeStyle=orthogonalEdgeStyle;rounded=0;orthogonalLoop=1;jettySize=auto;html=1;entryX=0.5;entryY=0;entryDx=0;entryDy=0;fillColor=#1ba1e2;strokeColor=#006EAF;" edge="1" parent="1" source="IlpyLP8oz_AvC5KWS2CE-55" target="IlpyLP8oz_AvC5KWS2CE-30">
          <mxGeometry relative="1" as="geometry" />
        </mxCell>
        <mxCell id="IlpyLP8oz_AvC5KWS2CE-55" value="&lt;div&gt;Content 2&lt;/div&gt;" style="rounded=1;whiteSpace=wrap;html=1;fillColor=#1ba1e2;fontColor=#ffffff;strokeColor=#006EAF;" vertex="1" parent="1">
          <mxGeometry x="1455" y="330" width="120" height="60" as="geometry" />
        </mxCell>
        <mxCell id="IlpyLP8oz_AvC5KWS2CE-57" value="Content 3" style="rounded=1;whiteSpace=wrap;html=1;fillColor=#a20025;fontColor=#ffffff;strokeColor=#6F0000;" vertex="1" parent="1">
          <mxGeometry x="1455" y="430" width="120" height="60" as="geometry" />
        </mxCell>
        <mxCell id="IlpyLP8oz_AvC5KWS2CE-60" value="Data Wrapper" style="rounded=0;whiteSpace=wrap;html=1;verticalAlign=middle;shadow=1;fillColor=light-dark(#BAC8D3,#FFFFFF);strokeColor=#23445d;fontColor=light-dark(#000000,#000000);" vertex="1" parent="1">
          <mxGeometry x="1400" y="41" width="80" height="39" as="geometry" />
        </mxCell>
        <mxCell id="IlpyLP8oz_AvC5KWS2CE-62" value="Data" style="rounded=1;whiteSpace=wrap;html=1;glass=0;fillColor=#60a917;fontColor=#ffffff;strokeColor=#2D7600;" vertex="1" parent="1">
          <mxGeometry x="1520" y="40" width="40" height="40" as="geometry" />
        </mxCell>
      </root>
    </mxGraphModel>
  </diagram>
</mxfile>
